<?xml version="1.0" encoding="UTF-8" ?>
<svg version="1.1" width="32" height="32" xmlns="http://www.w3.org/2000/svg" shape-rendering="crispEdges">
<rect x="16" y="0" width="1" height="1" fill="#46AF38" />
<rect x="18" y="0" width="1" height="1" fill="#46AF38" />
<rect x="29" y="0" width="1" height="1" fill="#46AF38" />
<rect x="31" y="0" width="1" height="1" fill="#46AF38" />
<rect x="17" y="1" width="1" height="1" fill="#46AF38" />
<rect x="30" y="1" width="1" height="1" fill="#46AF38" />
<rect x="4" y="6" width="1" height="1" fill="#46AF38" />
<rect x="6" y="6" width="1" height="1" fill="#46AF38" />
<rect x="5" y="7" width="1" height="1" fill="#46AF38" />
<rect x="23" y="7" width="1" height="1" fill="#46AF38" />
<rect x="25" y="7" width="1" height="1" fill="#46AF38" />
<rect x="24" y="8" width="1" height="1" fill="#46AF38" />
<rect x="15" y="13" width="1" height="1" fill="#46AF38" />
<rect x="17" y="13" width="1" height="1" fill="#46AF38" />
<rect x="16" y="14" width="1" height="1" fill="#46AF38" />
<rect x="5" y="17" width="1" height="1" fill="#46AF38" />
<rect x="7" y="17" width="1" height="1" fill="#46AF38" />
<rect x="6" y="18" width="1" height="1" fill="#46AF38" />
<rect x="23" y="22" width="1" height="1" fill="#46AF38" />
<rect x="25" y="22" width="1" height="1" fill="#46AF38" />
<rect x="12" y="23" width="1" height="1" fill="#46AF38" />
<rect x="14" y="23" width="1" height="1" fill="#46AF38" />
<rect x="24" y="23" width="1" height="1" fill="#46AF38" />
<rect x="13" y="24" width="1" height="1" fill="#46AF38" />
<rect x="18" y="27" width="1" height="1" fill="#46AF38" />
<rect x="20" y="27" width="1" height="1" fill="#46AF38" />
<rect x="1" y="28" width="1" height="1" fill="#46AF38" />
<rect x="3" y="28" width="1" height="1" fill="#46AF38" />
<rect x="19" y="28" width="1" height="1" fill="#46AF38" />
<rect x="2" y="29" width="1" height="1" fill="#46AF38" />
</svg>